<svg width="24" height="24" viewBox="0 0 24 24" fill="none" xmlns="http://www.w3.org/2000/svg">
<path opacity="0.4" d="M22.02 16.82L18.89 9.50002C18.32 8.16002 17.47 7.40002 16.5 7.35002C15.54 7.30002 14.61 7.97002 13.9 9.25002L12 12.66C11.6 13.38 11.03 13.81 10.41 13.86C9.78001 13.92 9.15002 13.59 8.64002 12.94L8.42002 12.66C7.71002 11.77 6.83002 11.34 5.93002 11.43C5.03002 11.52 4.26002 12.14 3.75002 13.15L2.02002 16.6C1.40002 17.85 1.46002 19.3 2.19002 20.48C2.92002 21.66 4.19002 22.37 5.58002 22.37H18.34C19.68 22.37 20.93 21.7 21.67 20.58C22.43 19.46 22.55 18.05 22.02 16.82Z" fill="#7A5AF8"/>
<path d="M6.97003 8.38012C8.83675 8.38012 10.35 6.86684 10.35 5.00012C10.35 3.13339 8.83675 1.62012 6.97003 1.62012C5.1033 1.62012 3.59003 3.13339 3.59003 5.00012C3.59003 6.86684 5.1033 8.38012 6.97003 8.38012Z" fill="#7A5AF8"/>
</svg>
